<svg xmlns="http://www.w3.org/2000/svg" version="1.1" class="logo" viewBox="0 0 376.4 75.2" enable-background="new 0 0 376.4 75.2" width="100%" height="100%">
  <path d="M4.8,30.8C1.7,35.1,0,40.5,0,47.2c0,7.3,1.6,13.1,5.1,17.6c5.1,6.8,14.6,10.3,28.1,10.3c14.3,0,22.5-4.4,26.9-10.1
                                c3.1-4.2,4.2-9.1,4.3-13.5H44.3c0,1.3-0.4,2.7-1.1,4.1c-1.7,2.7-4.7,4.1-9.4,4.1c-4.7,0-8.2-1.3-9.9-3.8c-1.6-1.9-2.2-5-2.2-8.6
                                c0-3.2,0.7-6.1,2.3-8.2c1.7-2.5,4.8-3.9,9.4-3.9c5.2,0,8.2,2,9.7,4.6c0.9,1.5,1.1,3,1.1,4.4h20.3c0-2.6-0.9-7.4-2.4-10.7
                                c-3.6-8.1-11.9-14.1-29.1-14.1C19.8,19.4,10,23.3,4.8,30.8" stroke="none" fill="#232323" stroke-width="1px"></path>
  <path d="M71.2,0v68.7c0,4.8,0,5.4,0.4,5.6h21.9c-0.6-0.5-0.6-2-0.6-4.9V0H71.2z" stroke="none" fill="#232323" stroke-width="1px"></path>
  <path d="M102.9,20.7v46.7c0,5.7,0.2,6.6,0.9,6.8h21.7c-0.5-0.3-0.5-1.4-0.5-6.8V20.7H102.9z" stroke="none" fill="#232323" stroke-width="1px"></path>
  <rect x="102.8" y="0" width="22.3" height="14.7" stroke="none" fill="#232323" stroke-width="1px"></rect>
  <path d="M195.1,36.3c-4.3-10.1-14.1-16.9-29.9-16.9c-12.9,0-22.3,4.1-27.9,11.2c-3.7,4.5-5.4,10.2-5.4,16.7c0,7.2,1.8,12.8,5,17
                                c5.4,7.5,15.1,10.9,28.1,10.9c12.8,0,21.6-3,26.7-8.9c2.8-3.1,4.6-6.9,5.1-9.4h-21c-0.2,0.2-1.4,4.3-10.8,4.3c-4.6,0-8.3-1.2-10-3.4
                                c-1.2-1.6-1.7-3.3-1.8-5.3h44.1C197.8,46.8,197,41.1,195.1,36.3z M153.2,42.8c0.1-2,1-4.1,2.1-5.5c1.9-2.2,5.3-3.6,9.7-3.6
                                c4.6,0,7.9,1.6,9.5,3.7c1.1,1.5,1.6,3.3,1.6,5.4H153.2z" stroke="none" fill="#232323" stroke-width="1px"></path>
  <path d="M224.5,28.3v-7.6h-21v53.6h21.7v-29c0-4.9,3.9-8.3,9.2-8.3s7.6,3,7.6,8.2c0,28.3,0,29.1,0.9,29.1h21.3
                                c-0.4-0.2-0.4-2.8-0.4-33.9c0-12.8-6-20.9-20.3-20.9C235.1,19.5,227.6,22.4,224.5,28.3" stroke="none" fill="#232323" stroke-width="1px"></path>
  <path d="M276.7,6.8c0,0-0.2,12.1-0.6,14h-6.8V38h7v20.5c0,12.9,9.7,16.7,18.5,16.7c6.5,0,12.5-0.7,15.4-1.7V58.3
                                c-1.7,0.4-4,0.7-6.1,0.7c-4.2,0-5.9-1.3-5.9-4.9V38h12.6V20.7h-12.9v-14H276.7z" stroke="none" fill="#232323" stroke-width="1px"></path>
  <path d="M317.5,20.7v46.7c0,5.7,0.2,6.6,0.9,6.8h21.7c-0.5-0.3-0.5-1.4-0.5-6.8V20.7H317.5z" stroke="none" fill="#232323" stroke-width="1px"></path>
  <rect x="317.4" y="0" width="22.3" height="14.7" stroke="none" fill="#232323" stroke-width="1px"></rect>
  <path d="M347,59.9c0,8.3,6.6,15,14.7,15c8.1,0,14.7-6.7,14.7-15s-6.6-15-14.7-15C353.6,44.9,347,51.6,347,59.9" stroke="none" fill="#232323" stroke-width="1px"></path>
</svg>